<svg xmlns="http://www.w3.org/2000/svg" viewBox="0 0 512 512" width="512" height="512">
  <defs>
    <linearGradient id="grad1" x1="0%" y1="0%" x2="100%" y2="100%">
      <stop offset="0%" style="stop-color:#3B82F6;stop-opacity:1" />
      <stop offset="50%" style="stop-color:#8B5CF6;stop-opacity:1" />
      <stop offset="100%" style="stop-color:#3B82F6;stop-opacity:1" />
    </linearGradient>
  </defs>
  
  <!-- Background circle -->
  <circle cx="256" cy="256" r="240" fill="url(#grad1)" stroke="#1E40AF" stroke-width="16"/>
  
  <!-- Domain/globe icon -->
  <path d="M256 96C150.4 96 64 182.4 64 288s86.4 192 192 192 192-86.4 192-192S361.6 96 256 96zm-16 286.72c-62.72-7.84-112-61.6-112-127.72 0-19.84 2.56-38.72 6.72-57.28L144 240v16c0 17.6 14.4 32 32 32v30.72zm110.4-40.64c-4.16-12.96-16-22.24-30.4-22.24h-16v-48c0-8.8-7.2-16-16-16H128v-32h32c8.8 0 16-7.2 16-16V112h32c17.6 0 32-14.4 32-32v-6.56c46.88 19.04 80 64.96 80 118.56 0 33.28-12.8 63.68-33.6 86.24z" fill="white" opacity="0.9"/>
  
  <!-- Money/coin symbol -->
  <circle cx="352" cy="160" r="48" fill="#FCD34D" stroke="#F59E0B" stroke-width="16"/>
  <text x="352" y="192" text-anchor="middle" font-family="Arial, sans-serif" font-size="64" font-weight="bold" fill="#92400E">$</text>
</svg>
