<svg xmlns="http://www.w3.org/2000/svg" viewBox="0 0 16 16" width="16" height="16">
  <defs>
    <linearGradient id="grad1" x1="0%" y1="0%" x2="100%" y2="100%">
      <stop offset="0%" style="stop-color:#3B82F6;stop-opacity:1" />
      <stop offset="50%" style="stop-color:#8B5CF6;stop-opacity:1" />
      <stop offset="100%" style="stop-color:#3B82F6;stop-opacity:1" />
    </linearGradient>
  </defs>
  
  <!-- Background circle -->
  <circle cx="8" cy="8" r="7" fill="url(#grad1)" stroke="#1E40AF" stroke-width="0.5"/>
  
  <!-- Domain/globe icon -->
  <path d="M8 3C5.24 3 3 5.24 3 8s2.24 5 5 5 5-2.24 5-5S10.76 3 8 3zm-0.5 8.97c-1.97-.25-3.5-1.93-3.5-3.97 0-.31.04-.61.11-.9L4.5 7.5v0.5c0 0.55.45 1 1 1v0.97zm3.45-1.27c-.13-.41-.5-.7-.95-.7h-0.5v-1.5c0-.28-.23-.5-.5-.5H4v-1h1c.28 0 0.5-.23 0.5-.5V3.5h1c0.55 0 1-.45 1-1v-.21c1.47 0.6 2.5 2.03 2.5 3.71 0 1.04-.4 1.99-1.05 2.7z" fill="white" opacity="0.9"/>
  
  <!-- Money/coin symbol -->
  <circle cx="11" cy="5" r="1.5" fill="#FCD34D" stroke="#F59E0B" stroke-width="0.5"/>
  <text x="11" y="6" text-anchor="middle" font-family="Arial, sans-serif" font-size="2" font-weight="bold" fill="#92400E">$</text>
</svg>
